<svg xmlns="http://www.w3.org/2000/svg" viewBox="-15 -15 110 205">
  <!-- Main property outline -->
  <polygon points="45,179 0,179 0,0 8,0 8,81 44.6,81 45,179" fill="none" stroke="red" stroke-width="1.5"/>
  
  <!-- Grey dashed box - parking (expanded to full 45m width, increased height to 43m) -->
  <rect x="1" y="82" width="43" height="43" fill="none" stroke="grey" stroke-width="1" stroke-dasharray="3,2"/>
  
  <!-- Entrance/exit lane on left side - wider now with removal of leftmost parking column -->
  <!-- (left side kept more open for better driveway access) -->
  
  <!-- Row 1 - removed leftmost column -->
  <rect x="7.5" y="84" width="2.5" height="5" fill="none" stroke="grey" stroke-width="0.3"/>
  <rect x="11" y="84" width="2.5" height="5" fill="none" stroke="grey" stroke-width="0.3"/>
  <rect x="14.5" y="84" width="2.5" height="5" fill="none" stroke="grey" stroke-width="0.3"/>
  <rect x="18" y="84" width="2.5" height="5" fill="none" stroke="grey" stroke-width="0.3"/>
  <rect x="21.5" y="84" width="2.5" height="5" fill="none" stroke="grey" stroke-width="0.3"/>
  <rect x="25" y="84" width="2.5" height="5" fill="none" stroke="grey" stroke-width="0.3"/>
  <rect x="28.5" y="84" width="2.5" height="5" fill="none" stroke="grey" stroke-width="0.3"/>
  <rect x="32" y="84" width="2.5" height="5" fill="none" stroke="grey" stroke-width="0.3"/>
  <rect x="35.5" y="84" width="2.5" height="5" fill="none" stroke="grey" stroke-width="0.3"/>
  <rect x="39" y="84" width="2.5" height="5" fill="none" stroke="grey" stroke-width="0.3"/>
  
  <!-- Row 2 - removed leftmost column -->
  <rect x="7.5" y="92" width="2.5" height="5" fill="none" stroke="grey" stroke-width="0.3"/>
  <rect x="11" y="92" width="2.5" height="5" fill="none" stroke="grey" stroke-width="0.3"/>
  <rect x="14.5" y="92" width="2.5" height="5" fill="none" stroke="grey" stroke-width="0.3"/>
  <rect x="18" y="92" width="2.5" height="5" fill="none" stroke="grey" stroke-width="0.3"/>
  <rect x="21.5" y="92" width="2.5" height="5" fill="none" stroke="grey" stroke-width="0.3"/>
  <rect x="25" y="92" width="2.5" height="5" fill="none" stroke="grey" stroke-width="0.3"/>
  <rect x="28.5" y="92" width="2.5" height="5" fill="none" stroke="grey" stroke-width="0.3"/>
  <rect x="32" y="92" width="2.5" height="5" fill="none" stroke="grey" stroke-width="0.3"/>
  <rect x="35.5" y="92" width="2.5" height="5" fill="none" stroke="grey" stroke-width="0.3"/>
  <rect x="39" y="92" width="2.5" height="5" fill="none" stroke="grey" stroke-width="0.3"/>

  <!-- Row 3 - removed leftmost column -->
  <rect x="7.5" y="100" width="2.5" height="5" fill="none" stroke="grey" stroke-width="0.3"/>
  <rect x="11" y="100" width="2.5" height="5" fill="none" stroke="grey" stroke-width="0.3"/>
  <rect x="14.5" y="100" width="2.5" height="5" fill="none" stroke="grey" stroke-width="0.3"/>
  <rect x="18" y="100" width="2.5" height="5" fill="none" stroke="grey" stroke-width="0.3"/>
  <rect x="21.5" y="100" width="2.5" height="5" fill="none" stroke="grey" stroke-width="0.3"/>
  <rect x="25" y="100" width="2.5" height="5" fill="none" stroke="grey" stroke-width="0.3"/>
  <rect x="28.5" y="100" width="2.5" height="5" fill="none" stroke="grey" stroke-width="0.3"/>
  <rect x="32" y="100" width="2.5" height="5" fill="none" stroke="grey" stroke-width="0.3"/>
  <rect x="35.5" y="100" width="2.5" height="5" fill="none" stroke="grey" stroke-width="0.3"/>
  <rect x="39" y="100" width="2.5" height="5" fill="none" stroke="grey" stroke-width="0.3"/>
  
  <!-- Row 4 - removed leftmost column -->
  <rect x="7.5" y="108" width="2.5" height="5" fill="none" stroke="grey" stroke-width="0.3"/>
  <rect x="11" y="108" width="2.5" height="5" fill="none" stroke="grey" stroke-width="0.3"/>
  <rect x="14.5" y="108" width="2.5" height="5" fill="none" stroke="grey" stroke-width="0.3"/>
  <rect x="18" y="108" width="2.5" height="5" fill="none" stroke="grey" stroke-width="0.3"/>
  <rect x="21.5" y="108" width="2.5" height="5" fill="none" stroke="grey" stroke-width="0.3"/>
  <rect x="25" y="108" width="2.5" height="5" fill="none" stroke="grey" stroke-width="0.3"/>
  <rect x="28.5" y="108" width="2.5" height="5" fill="none" stroke="grey" stroke-width="0.3"/>
  <rect x="32" y="108" width="2.5" height="5" fill="none" stroke="grey" stroke-width="0.3"/>
  <rect x="35.5" y="108" width="2.5" height="5" fill="none" stroke="grey" stroke-width="0.3"/>
  <rect x="39" y="108" width="2.5" height="5" fill="none" stroke="grey" stroke-width="0.3"/>
  
  <!-- Row 5 - removed leftmost column -->
  <rect x="7.5" y="116" width="2.5" height="5" fill="none" stroke="grey" stroke-width="0.3"/>
  <rect x="11" y="116" width="2.5" height="5" fill="none" stroke="grey" stroke-width="0.3"/>
  <rect x="14.5" y="116" width="2.5" height="5" fill="none" stroke="grey" stroke-width="0.3"/>
  <rect x="18" y="116" width="2.5" height="5" fill="none" stroke="grey" stroke-width="0.3"/>
  <rect x="21.5" y="116" width="2.5" height="5" fill="none" stroke="grey" stroke-width="0.3"/>
  <rect x="25" y="116" width="2.5" height="5" fill="none" stroke="grey" stroke-width="0.3"/>
  <rect x="28.5" y="116" width="2.5" height="5" fill="none" stroke="grey" stroke-width="0.3"/>
  <rect x="32" y="116" width="2.5" height="5" fill="none" stroke="grey" stroke-width="0.3"/>
  <rect x="35.5" y="116" width="2.5" height="5" fill="none" stroke="grey" stroke-width="0.3"/>
  <rect x="39" y="116" width="2.5" height="5" fill="none" stroke="grey" stroke-width="0.3"/>
  
  <!-- Green dashed box for lobby and cafe - EXPANDED to touch parking and almost touch courts -->
  <rect x="1" y="125" width="43" height="15" fill="none" stroke="green" stroke-width="1" stroke-dasharray="3,2"/>
  <text x="22.5" y="133.5" font-size="4" text-anchor="middle">Bathroom, Lobby, Cafe</text>
  
  <!-- 3 Vertical Padel Courts (10m width × 20m height) at the top - MOVED DOWN 1M -->
  <rect x="2.5" y="141" width="10" height="20" fill="none" stroke="blue" stroke-width="0.7"/>
  <rect x="17.5" y="141" width="10" height="20" fill="none" stroke="blue" stroke-width="0.7"/>
  <rect x="32.5" y="141" width="10" height="20" fill="none" stroke="blue" stroke-width="0.7"/>
  <text x="7.5" y="151" font-size="3" text-anchor="middle">Court 1</text>
  <text x="22.5" y="151" font-size="3" text-anchor="middle">Court 2</text>
  <text x="37.5" y="151" font-size="3" text-anchor="middle">Court 3</text>
  
  <!-- 2 Horizontal Padel Courts (20m width × 10m height) at the bottom -->
  <rect x="1" y="166" width="20" height="10" fill="none" stroke="blue" stroke-width="0.7"/>
  <rect x="24" y="166" width="20" height="10" fill="none" stroke="blue" stroke-width="0.7"/>
  <text x="11" y="171" font-size="3" text-anchor="middle">Court 4</text>
  <text x="34" y="171" font-size="3" text-anchor="middle">Court 5</text>
  
  <!-- Court spacing labels -->
  <text x="15" y="151" font-size="2" text-anchor="middle">5m</text>
  <text x="30" y="151" font-size="2" text-anchor="middle">5m</text>
  <text x="22.5" y="171" font-size="2" text-anchor="middle">3m</text>
  <!-- Updated spacing label to be midway between courts -->
  <text x="7.5" y="164" font-size="2" text-anchor="middle">↓ 5m ↓</text>
  <text x="22.5" y="164" font-size="2" text-anchor="middle">↓ 5m ↓</text>
  <text x="37.5" y="164" font-size="2" text-anchor="middle">↓ 5m ↓</text>
  
  <!-- Main property dimension labels -->
  <text x="22.5" y="189" font-size="5" text-anchor="middle">45m</text>
  <text x="-7" y="90" transform="rotate(270 -7 90)" font-size="5" text-anchor="middle">179m</text>
  <text x="4" y="-7" font-size="5" text-anchor="middle">8m</text>
  <text x="13" y="40.5" transform="rotate(270 13 40.5)" font-size="5" text-anchor="middle">81m</text>
  <text x="52" y="130" transform="rotate(270 52 130)" font-size="5" text-anchor="middle">97.9m</text>
  <text x="26.3" y="78" font-size="5" text-anchor="middle">36.6m</text>
  <text x="4" y="40.5" transform="rotate(270 4 40.5)" font-size="4" text-anchor="middle">Driveway</text>
  
  <!-- LEGEND SECTION - WIDER BOX -->
  <rect x="55" y="20" width="60" height="135" fill="none" stroke="black" stroke-width="0.5"/>
  <text x="85" y="30" font-size="5" text-anchor="middle" font-weight="bold">LEGEND</text>
  
  <!-- Property outline legend -->
  <line x1="60" y1="40" x2="68" y2="40" stroke="red" stroke-width="1.5"/>
  <text x="78" y="42" font-size="3.5" text-anchor="left">Property Line</text>
  
  <!-- Parking legend -->
  <line x1="60" y1="50" x2="68" y2="50" stroke="grey" stroke-width="1" stroke-dasharray="3,2"/>
  <text x="78" y="52" font-size="3.5" text-anchor="left">Parking Area</text>
  <text x="78" y="56.5" font-size="3" text-anchor="left">(43m × 43m, 50 cars)</text>
  <text x="78" y="61" font-size="3" text-anchor="left">Single space: 2.5m × 5m</text>
  <text x="78" y="65.5" font-size="3" text-anchor="left">(Indonesian standard)</text>
  
  <!-- Lobby legend -->
  <line x1="60" y1="74" x2="68" y2="74" stroke="green" stroke-width="1" stroke-dasharray="3,2"/>
  <text x="78" y="76" font-size="3.5" text-anchor="left">Bathroom, Lobby, Cafe</text>
  <text x="78" y="80.5" font-size="3" text-anchor="left">(43m × 15m)</text>
  
  <!-- Courts legend -->
  <line x1="60" y1="89" x2="68" y2="89" stroke="blue" stroke-width="0.7"/>
  <text x="78" y="91" font-size="3.5" text-anchor="left">Pádel Court</text>
  <text x="78" y="95.5" font-size="3" text-anchor="left">Vertical: 10m × 20m</text>
  <text x="78" y="100" font-size="3" text-anchor="left">Horizontal: 20m × 10m</text>
  <text x="78" y="104.5" font-size="3" text-anchor="left">Standard size for pádel</text>
  
  <!-- Spacing legend -->
  <text x="85" y="114" font-size="3.5" text-anchor="middle">Spacing Between Courts:</text>
  <text x="85" y="119" font-size="3" text-anchor="middle">Horizontal: 5m</text>
  <text x="85" y="124" font-size="3" text-anchor="middle">Vertical: 5m</text>
  <text x="85" y="129" font-size="3" text-anchor="middle">Between rows: 3m</text>
  
  <!-- Total facility information -->
  <text x="85" y="139" font-size="3.5" text-anchor="middle">Total: 5 Pádel Courts</text>
  <text x="85" y="144" font-size="3" text-anchor="middle">3 vertical, 2 horizontal</text>
  <text x="85" y="149" font-size="3" text-anchor="middle">Villa Melati Mas, Serpong</text>
</svg>
