<svg xmlns="http://www.w3.org/2000/svg" viewBox="-150 -150 1100 2050">
  <!-- Main property outline -->
  <polygon points="450,1790 0,1790 0,0 80,0 80,810 446,810 450,1790" fill="none" stroke="red" stroke-width="15"/>
  
  <!-- Grey dashed box - parking (expanded to full 45m width, increased height to 43m) -->
  <rect x="10" y="820" width="430" height="430" fill="none" stroke="grey" stroke-width="10" stroke-dasharray="30,20"/>
  
  <!-- Entrance/exit lane on left side - wider now with removal of leftmost parking column -->
  <!-- (left side kept more open for better driveway access) -->
  
  <!-- Row 1 - removed leftmost column -->
  <rect x="75" y="840" width="25" height="50" fill="none" stroke="grey" stroke-width="3"/>
  <rect x="110" y="840" width="25" height="50" fill="none" stroke="grey" stroke-width="3"/>
  <rect x="145" y="840" width="25" height="50" fill="none" stroke="grey" stroke-width="3"/>
  <rect x="180" y="840" width="25" height="50" fill="none" stroke="grey" stroke-width="3"/>
  <rect x="215" y="840" width="25" height="50" fill="none" stroke="grey" stroke-width="3"/>
  <rect x="250" y="840" width="25" height="50" fill="none" stroke="grey" stroke-width="3"/>
  <rect x="285" y="840" width="25" height="50" fill="none" stroke="grey" stroke-width="3"/>
  <rect x="320" y="840" width="25" height="50" fill="none" stroke="grey" stroke-width="3"/>
  <rect x="355" y="840" width="25" height="50" fill="none" stroke="grey" stroke-width="3"/>
  <rect x="390" y="840" width="25" height="50" fill="none" stroke="grey" stroke-width="3"/>
  
  <!-- Row 2 - removed leftmost column -->
  <rect x="75" y="920" width="25" height="50" fill="none" stroke="grey" stroke-width="3"/>
  <rect x="110" y="920" width="25" height="50" fill="none" stroke="grey" stroke-width="3"/>
  <rect x="145" y="920" width="25" height="50" fill="none" stroke="grey" stroke-width="3"/>
  <rect x="180" y="920" width="25" height="50" fill="none" stroke="grey" stroke-width="3"/>
  <rect x="215" y="920" width="25" height="50" fill="none" stroke="grey" stroke-width="3"/>
  <rect x="250" y="920" width="25" height="50" fill="none" stroke="grey" stroke-width="3"/>
  <rect x="285" y="920" width="25" height="50" fill="none" stroke="grey" stroke-width="3"/>
  <rect x="320" y="920" width="25" height="50" fill="none" stroke="grey" stroke-width="3"/>
  <rect x="355" y="920" width="25" height="50" fill="none" stroke="grey" stroke-width="3"/>
  <rect x="390" y="920" width="25" height="50" fill="none" stroke="grey" stroke-width="3"/>

  <!-- Row 3 - removed leftmost column -->
  <rect x="75" y="1000" width="25" height="50" fill="none" stroke="grey" stroke-width="3"/>
  <rect x="110" y="1000" width="25" height="50" fill="none" stroke="grey" stroke-width="3"/>
  <rect x="145" y="1000" width="25" height="50" fill="none" stroke="grey" stroke-width="3"/>
  <rect x="180" y="1000" width="25" height="50" fill="none" stroke="grey" stroke-width="3"/>
  <rect x="215" y="1000" width="25" height="50" fill="none" stroke="grey" stroke-width="3"/>
  <rect x="250" y="1000" width="25" height="50" fill="none" stroke="grey" stroke-width="3"/>
  <rect x="285" y="1000" width="25" height="50" fill="none" stroke="grey" stroke-width="3"/>
  <rect x="320" y="1000" width="25" height="50" fill="none" stroke="grey" stroke-width="3"/>
  <rect x="355" y="1000" width="25" height="50" fill="none" stroke="grey" stroke-width="3"/>
  <rect x="390" y="1000" width="25" height="50" fill="none" stroke="grey" stroke-width="3"/>
  
  <!-- Row 4 - removed leftmost column -->
  <rect x="75" y="1080" width="25" height="50" fill="none" stroke="grey" stroke-width="3"/>
  <rect x="110" y="1080" width="25" height="50" fill="none" stroke="grey" stroke-width="3"/>
  <rect x="145" y="1080" width="25" height="50" fill="none" stroke="grey" stroke-width="3"/>
  <rect x="180" y="1080" width="25" height="50" fill="none" stroke="grey" stroke-width="3"/>
  <rect x="215" y="1080" width="25" height="50" fill="none" stroke="grey" stroke-width="3"/>
  <rect x="250" y="1080" width="25" height="50" fill="none" stroke="grey" stroke-width="3"/>
  <rect x="285" y="1080" width="25" height="50" fill="none" stroke="grey" stroke-width="3"/>
  <rect x="320" y="1080" width="25" height="50" fill="none" stroke="grey" stroke-width="3"/>
  <rect x="355" y="1080" width="25" height="50" fill="none" stroke="grey" stroke-width="3"/>
  <rect x="390" y="1080" width="25" height="50" fill="none" stroke="grey" stroke-width="3"/>
  
  <!-- Row 5 - removed leftmost column -->
  <rect x="75" y="1160" width="25" height="50" fill="none" stroke="grey" stroke-width="3"/>
  <rect x="110" y="1160" width="25" height="50" fill="none" stroke="grey" stroke-width="3"/>
  <rect x="145" y="1160" width="25" height="50" fill="none" stroke="grey" stroke-width="3"/>
  <rect x="180" y="1160" width="25" height="50" fill="none" stroke="grey" stroke-width="3"/>
  <rect x="215" y="1160" width="25" height="50" fill="none" stroke="grey" stroke-width="3"/>
  <rect x="250" y="1160" width="25" height="50" fill="none" stroke="grey" stroke-width="3"/>
  <rect x="285" y="1160" width="25" height="50" fill="none" stroke="grey" stroke-width="3"/>
  <rect x="320" y="1160" width="25" height="50" fill="none" stroke="grey" stroke-width="3"/>
  <rect x="355" y="1160" width="25" height="50" fill="none" stroke="grey" stroke-width="3"/>
  <rect x="390" y="1160" width="25" height="50" fill="none" stroke="grey" stroke-width="3"/>
  
  <!-- Green dashed box for lobby and cafe - EXPANDED to touch parking and almost touch courts -->
  <rect x="10" y="1250" width="430" height="150" fill="none" stroke="green" stroke-width="10" stroke-dasharray="30,20"/>
  <text x="225" y="1335" font-size="40" text-anchor="middle">Bathroom, Lobby, Cafe</text>
  
  <!-- 3 Vertical Padel Courts (10m width × 20m height) at the top - MOVED DOWN 1M -->
  <rect x="25" y="1410" width="100" height="200" fill="none" stroke="blue" stroke-width="7"/>
  <rect x="175" y="1410" width="100" height="200" fill="none" stroke="blue" stroke-width="7"/>
  <rect x="325" y="1410" width="100" height="200" fill="none" stroke="blue" stroke-width="7"/>
  <text x="75" y="1510" font-size="30" text-anchor="middle">Court 1</text>
  <text x="225" y="1510" font-size="30" text-anchor="middle">Court 2</text>
  <text x="375" y="1510" font-size="30" text-anchor="middle">Court 3</text>
  
  <!-- 2 Horizontal Padel Courts (20m width × 10m height) at the bottom -->
  <rect x="10" y="1660" width="200" height="100" fill="none" stroke="blue" stroke-width="7"/>
  <rect x="240" y="1660" width="200" height="100" fill="none" stroke="blue" stroke-width="7"/>
  <text x="110" y="1710" font-size="30" text-anchor="middle">Court 4</text>
  <text x="340" y="1710" font-size="30" text-anchor="middle">Court 5</text>
  
  <!-- Court spacing labels -->
  <text x="150" y="1510" font-size="20" text-anchor="middle">5m</text>
  <text x="300" y="1510" font-size="20" text-anchor="middle">5m</text>
  <text x="225" y="1710" font-size="20" text-anchor="middle">3m</text>
  <!-- Updated spacing label to be midway between courts -->
  <text x="75" y="1640" font-size="20" text-anchor="middle">↓ 5m ↓</text>
  <text x="225" y="1640" font-size="20" text-anchor="middle">↓ 5m ↓</text>
  <text x="375" y="1640" font-size="20" text-anchor="middle">↓ 5m ↓</text>
  
  <!-- Main property dimension labels -->
  <text x="225" y="1890" font-size="50" text-anchor="middle">45m</text>
  <text x="-70" y="900" transform="rotate(270 -70 900)" font-size="50" text-anchor="middle">179m</text>
  <text x="40" y="-70" font-size="50" text-anchor="middle">8m</text>
  <text x="130" y="405" transform="rotate(270 130 405)" font-size="50" text-anchor="middle">81m</text>
  <text x="520" y="1300" transform="rotate(270 520 1300)" font-size="50" text-anchor="middle">97.9m</text>
  <text x="263" y="780" font-size="50" text-anchor="middle">36.6m</text>
  <text x="40" y="405" transform="rotate(270 40 405)" font-size="40" text-anchor="middle">Driveway</text>
  
  <!-- LEGEND SECTION - WIDER BOX -->
  <rect x="550" y="200" width="600" height="1350" fill="none" stroke="black" stroke-width="5"/>
  <text x="850" y="300" font-size="50" text-anchor="middle" font-weight="bold">LEGEND</text>
  
  <!-- Property outline legend -->
  <line x1="600" y1="400" x2="680" y2="400" stroke="red" stroke-width="15"/>
  <text x="780" y="420" font-size="35" text-anchor="left">Property Line</text>
  
  <!-- Parking legend -->
  <line x1="600" y1="500" x2="680" y2="500" stroke="grey" stroke-width="10" stroke-dasharray="30,20"/>
  <text x="780" y="520" font-size="35" text-anchor="left">Parking Area</text>
  <text x="780" y="565" font-size="30" text-anchor="left">(43m × 43m, 50 cars)</text>
  <text x="780" y="610" font-size="30" text-anchor="left">Single space: 2.5m × 5m</text>
  <text x="780" y="655" font-size="30" text-anchor="left">(Indonesian standard)</text>
  
  <!-- Lobby legend -->
  <line x1="600" y1="740" x2="680" y2="740" stroke="green" stroke-width="10" stroke-dasharray="30,20"/>
  <text x="780" y="760" font-size="35" text-anchor="left">Bathroom, Lobby, Cafe</text>
  <text x="780" y="805" font-size="30" text-anchor="left">(43m × 15m)</text>
  
  <!-- Courts legend -->
  <line x1="600" y1="890" x2="680" y2="890" stroke="blue" stroke-width="7"/>
  <text x="780" y="910" font-size="35" text-anchor="left">Pádel Court</text>
  <text x="780" y="955" font-size="30" text-anchor="left">Vertical: 10m × 20m</text>
  <text x="780" y="1000" font-size="30" text-anchor="left">Horizontal: 20m × 10m</text>
  <text x="780" y="1045" font-size="30" text-anchor="left">Standard size for pádel</text>
  
  <!-- Spacing legend -->
  <text x="850" y="1140" font-size="35" text-anchor="middle">Spacing Between Courts:</text>
  <text x="850" y="1190" font-size="30" text-anchor="middle">Horizontal: 5m</text>
  <text x="850" y="1240" font-size="30" text-anchor="middle">Vertical: 5m</text>
  <text x="850" y="1290" font-size="30" text-anchor="middle">Between rows: 3m</text>
  
  <!-- Total facility information -->
  <text x="850" y="1390" font-size="35" text-anchor="middle">Total: 5 Pádel Courts</text>
  <text x="850" y="1440" font-size="30" text-anchor="middle">3 vertical, 2 horizontal</text>
  <text x="850" y="1490" font-size="30" text-anchor="middle">Villa Melati Mas, Serpong</text>
</svg>
